<svg width="119" height="36" viewBox="0 0 119 36" fill="none" xmlns="http://www.w3.org/2000/svg">
<path d="M50.792 17.552C50.792 15.888 51.152 14.408 51.872 13.112C52.592 11.8 53.592 10.784 54.872 10.064C56.168 9.328 57.632 8.96 59.264 8.96C61.264 8.96 62.976 9.488 64.4 10.544C65.824 11.6 66.776 13.04 67.256 14.864H62.744C62.408 14.16 61.928 13.624 61.304 13.256C60.696 12.888 60 12.704 59.216 12.704C57.952 12.704 56.928 13.144 56.144 14.024C55.36 14.904 54.968 16.08 54.968 17.552C54.968 19.024 55.36 20.2 56.144 21.08C56.928 21.96 57.952 22.4 59.216 22.4C60 22.4 60.696 22.216 61.304 21.848C61.928 21.48 62.408 20.944 62.744 20.24H67.256C66.776 22.064 65.824 23.504 64.4 24.56C62.976 25.6 61.264 26.12 59.264 26.12C57.632 26.12 56.168 25.76 54.872 25.04C53.592 24.304 52.592 23.288 51.872 21.992C51.152 20.696 50.792 19.216 50.792 17.552ZM78.3613 26L74.8573 19.64H73.8733V26H69.7693V9.152H76.6573C77.9853 9.152 79.1133 9.384 80.0413 9.848C80.9853 10.312 81.6893 10.952 82.1533 11.768C82.6173 12.568 82.8493 13.464 82.8493 14.456C82.8493 15.576 82.5293 16.576 81.8893 17.456C81.2653 18.336 80.3373 18.96 79.1053 19.328L82.9933 26H78.3613ZM73.8733 16.736H76.4173C77.1693 16.736 77.7293 16.552 78.0973 16.184C78.4813 15.816 78.6733 15.296 78.6733 14.624C78.6733 13.984 78.4813 13.48 78.0973 13.112C77.7293 12.744 77.1693 12.56 76.4173 12.56H73.8733V16.736ZM89.4575 9.152V19.232C89.4575 20.24 89.7055 21.016 90.2015 21.56C90.6975 22.104 91.4255 22.376 92.3855 22.376C93.3455 22.376 94.0815 22.104 94.5935 21.56C95.1055 21.016 95.3615 20.24 95.3615 19.232V9.152H99.4655V19.208C99.4655 20.712 99.1455 21.984 98.5055 23.024C97.8655 24.064 97.0015 24.848 95.9135 25.376C94.8415 25.904 93.6415 26.168 92.3135 26.168C90.9855 26.168 89.7935 25.912 88.7375 25.4C87.6975 24.872 86.8735 24.088 86.2655 23.048C85.6575 21.992 85.3535 20.712 85.3535 19.208V9.152H89.4575ZM108.659 9.152C110.435 9.152 111.987 9.504 113.315 10.208C114.643 10.912 115.667 11.904 116.387 13.184C117.123 14.448 117.491 15.912 117.491 17.576C117.491 19.224 117.123 20.688 116.387 21.968C115.667 23.248 114.635 24.24 113.291 24.944C111.963 25.648 110.419 26 108.659 26H102.347V9.152H108.659ZM108.395 22.448C109.947 22.448 111.155 22.024 112.019 21.176C112.883 20.328 113.315 19.128 113.315 17.576C113.315 16.024 112.883 14.816 112.019 13.952C111.155 13.088 109.947 12.656 108.395 12.656H106.451V22.448H108.395Z" fill="#3C91E6"/>
<path d="M7.5 33H28.5C30.1545 33 31.5 31.6545 31.5 30V7.5C31.5 5.8455 30.1545 4.5 28.5 4.5H25.5C25.5 4.10218 25.342 3.72064 25.0607 3.43934C24.7794 3.15804 24.3978 3 24 3H12C11.6022 3 11.2206 3.15804 10.9393 3.43934C10.658 3.72064 10.5 4.10218 10.5 4.5H7.5C5.8455 4.5 4.5 5.8455 4.5 7.5V30C4.5 31.6545 5.8455 33 7.5 33ZM7.5 7.5H10.5V10.5H25.5V7.5H28.5V30H7.5V7.5Z" fill="#3C91E6"/>
<path d="M16.5 20.379L13.8105 17.6895L11.6895 19.8105L16.5 24.621L24.3105 16.8105L22.1895 14.6895L16.5 20.379Z" fill="#3C91E6"/>
</svg>
